<?xml version="1.0" encoding="UTF-8"?>
<svg width="64px" height="64px" viewBox="0 0 64 64" version="1.1" xmlns="http://www.w3.org/2000/svg" xmlns:xlink="http://www.w3.org/1999/xlink">
    <!-- Generator: Sketch 40.1 (33804) - http://www.bohemiancoding.com/sketch -->
    <title>cd-icon-learning</title>
    <desc>Created with Sketch.</desc>
    <defs>
        <path d="M6.25093341,11.4330937 L2.00918093,11.4330937 C0.896381644,11.4330937 0,12.3252865 0,13.4258621 L0,22.0167283 C0,23.1050329 0.899540941,24.0094967 2.00918093,24.0094967 L20.8570065,24.0094967 C21.9698057,24.0094967 22.8661874,23.1173039 22.8661874,22.0167283 L22.8661874,13.4258621 C22.8661874,12.3375576 21.9666464,11.4330937 20.8570065,11.4330937 L16.615254,11.4330937 C17.667514,10.2335308 18.2929499,8.6429144 18.2929499,6.85985621 C18.2929499,2.97260436 15.3203455,0 11.4330937,0 C7.54584183,0 4.57323748,2.97260436 4.57323748,6.85985621 C4.57323748,8.6429144 5.19867335,10.2335308 6.25093341,11.4330937 Z" id="path-1"></path>
        <mask id="mask-2" maskContentUnits="userSpaceOnUse" maskUnits="objectBoundingBox" x="0" y="0" width="22.8661874" height="24.0094967" fill="white">
            <use xlink:href="#path-1"></use>
        </mask>
        <path d="M6.25093341,11.4330937 L2.00918093,11.4330937 C0.896381644,11.4330937 0,12.3252865 0,13.4258621 L0,22.0167283 C0,23.1050329 0.899540941,24.0094967 2.00918093,24.0094967 L20.8570065,24.0094967 C21.9698057,24.0094967 22.8661874,23.1173039 22.8661874,22.0167283 L22.8661874,13.4258621 C22.8661874,12.3375576 21.9666464,11.4330937 20.8570065,11.4330937 L16.615254,11.4330937 C17.667514,10.2335308 18.2929499,8.6429144 18.2929499,6.85985621 C18.2929499,2.97260436 15.3203455,0 11.4330937,0 C7.54584183,0 4.57323748,2.97260436 4.57323748,6.85985621 C4.57323748,8.6429144 5.19867335,10.2335308 6.25093341,11.4330937 Z" id="path-3"></path>
        <mask id="mask-4" maskContentUnits="userSpaceOnUse" maskUnits="objectBoundingBox" x="0" y="0" width="22.8661874" height="24.0094967" fill="white">
            <use xlink:href="#path-3"></use>
        </mask>
    </defs>
    <g id="Page-1" stroke="none" stroke-width="1" fill="none" fill-rule="evenodd">
        <g id="cd-icon-learning" fill="#FFFFFF">
            <g id="Person" transform="translate(0.000000, 37.000000)" stroke="#979797" stroke-opacity="0" stroke-width="2">
                <use id="Combined-Shape-Copy" mask="url(#mask-2)" xlink:href="#path-1"></use>
            </g>
            <g id="Person" transform="translate(41.000000, 37.000000)" stroke="#979797" stroke-opacity="0" stroke-width="2">
                <use id="Combined-Shape-Copy" mask="url(#mask-4)" xlink:href="#path-3"></use>
            </g>
            <path d="M27.2391819,23 L22.0091809,23 C20.8963816,23 20,23.8921928 20,24.9927685 L20,33.5836346 C20,34.1337551 20.2298453,34.6369017 20.6004888,35 L8.00659927,35 C6.89838509,35 6,34.1021596 6,33.008383 L6,6.99161703 C6,5.89167732 6.90255737,5 8.00659927,5 L55.9934007,5 C57.1016149,5 58,5.89784041 58,6.99161703 L58,33.008383 C58,34.1083227 57.0974426,35 55.9934007,35 L42.2715417,35 C42.6390642,34.6388207 42.8661874,34.1376274 42.8661874,33.5836346 L42.8661874,24.9927685 C42.8661874,23.9044639 41.9666464,23 40.8570065,23 L36.4805306,23 C37.8681356,21.7590082 38.7197124,19.940444 38.7197124,17.8598562 C38.7197124,13.9726044 35.7471081,11 31.8598562,11 C27.9726044,11 25,13.9726044 25,17.8598562 C25,19.940444 25.8515769,21.7590082 27.2391819,23 Z" id="Combined-Shape"></path>
        </g>
    </g>
</svg>