<?xml version="1.0" encoding="UTF-8"?>
<svg width="64px" height="64px" viewBox="0 0 64 64" version="1.1" xmlns="http://www.w3.org/2000/svg" xmlns:xlink="http://www.w3.org/1999/xlink">
    <!-- Generator: Sketch 40.1 (33804) - http://www.bohemiancoding.com/sketch -->
    <title>cd-icon-finish</title>
    <desc>Created with Sketch.</desc>
    <defs></defs>
    <g id="Page-1" stroke="none" stroke-width="1" fill="none" fill-rule="evenodd">
        <g id="cd-icon-finish" fill="#FFFFFF">
            <path d="M42.4484499,9.76167943 L55.0927007,23.0859396 L54.6118614,41.4484499 L41.2876012,54.0927007 L22.925091,53.6118614 L10.2808402,40.2876012 L10.7616794,21.925091 L24.0859396,9.28084018 L42.4484499,9.76167943 Z M24.072,27.832 L21.624,27.832 L21.624,27.28 C21.624,26.7199972 21.4920013,26.236002 21.228,25.828 C20.9639987,25.419998 20.5200031,25.216 19.896,25.216 C19.5599983,25.216 19.2840011,25.2799994 19.068,25.408 C18.8519989,25.5360006 18.6840006,25.699999 18.564,25.9 C18.4439994,26.100001 18.3600002,26.3319987 18.312,26.596 C18.2639998,26.8600013 18.24,27.1359986 18.24,27.424 C18.24,27.7600017 18.2519999,28.0439988 18.276,28.276 C18.3000001,28.5080012 18.3599995,28.7079992 18.456,28.876 C18.5520005,29.0440008 18.6919991,29.1919994 18.876,29.32 C19.0600009,29.4480006 19.3119984,29.5759994 19.632,29.704 L21.504,30.448 C22.0480027,30.656001 22.4879983,30.8999986 22.824,31.18 C23.1600017,31.4600014 23.4199991,31.7879981 23.604,32.164 C23.7880009,32.5400019 23.9119997,32.9719976 23.976,33.46 C24.0400003,33.9480024 24.072,34.5039969 24.072,35.128 C24.072,35.8480036 24.0000007,36.5159969 23.856,37.132 C23.7119993,37.7480031 23.4760016,38.2759978 23.148,38.716 C22.8199984,39.1560022 22.3840027,39.5039987 21.84,39.76 C21.2959973,40.0160013 20.6320039,40.144 19.848,40.144 C19.255997,40.144 18.7040026,40.040001 18.192,39.832 C17.6799974,39.623999 17.2400018,39.3400018 16.872,38.98 C16.5039982,38.6199982 16.2120011,38.1920025 15.996,37.696 C15.7799989,37.1999975 15.672,36.6640029 15.672,36.088 L15.672,35.176 L18.12,35.176 L18.12,35.944 C18.12,36.3920022 18.2519987,36.7959982 18.516,37.156 C18.7800013,37.5160018 19.2239969,37.696 19.848,37.696 C20.2640021,37.696 20.5879988,37.6360006 20.82,37.516 C21.0520012,37.3959994 21.2279994,37.2280011 21.348,37.012 C21.4680006,36.7959989 21.5439998,36.5280016 21.576,36.208 C21.6080002,35.8879984 21.624,35.5360019 21.624,35.152 C21.624,34.7039978 21.6080002,34.3360014 21.576,34.048 C21.5439998,33.7599986 21.4760005,33.5280009 21.372,33.352 C21.2679995,33.1759991 21.1240009,33.0320006 20.94,32.92 C20.7559991,32.8079994 20.5120015,32.6880006 20.208,32.56 L18.456,31.84 C17.3999947,31.4079978 16.6920018,30.8360036 16.332,30.124 C15.9719982,29.4119964 15.792,28.5200054 15.792,27.448 C15.792,26.8079968 15.8799991,26.2000029 16.056,25.624 C16.2320009,25.0479971 16.4919983,24.5520021 16.836,24.136 C17.1800017,23.7199979 17.6159974,23.3880012 18.144,23.14 C18.6720026,22.8919988 19.2879965,22.768 19.992,22.768 C20.600003,22.768 21.1559975,22.8799989 21.66,23.104 C22.1640025,23.3280011 22.5959982,23.6239982 22.956,23.992 C23.3160018,24.3600018 23.591999,24.7719977 23.784,25.228 C23.976001,25.6840023 24.072,26.1519976 24.072,26.632 L24.072,27.832 Z M27.504,25.216 L24.672,25.216 L24.672,22.912 L32.784,22.912 L32.784,25.216 L29.952,25.216 L29.952,40 L27.504,40 L27.504,25.216 Z M33.72,26.944 C33.72,26.2559966 33.8399988,25.6480026 34.08,25.12 C34.3200012,24.5919974 34.635998,24.1560017 35.028,23.812 C35.420002,23.4679983 35.8599976,23.2080009 36.348,23.032 C36.8360024,22.8559991 37.3279975,22.768 37.824,22.768 C38.3200025,22.768 38.8119976,22.8559991 39.3,23.032 C39.7880024,23.2080009 40.227998,23.4679983 40.62,23.812 C41.012002,24.1560017 41.3279988,24.5919974 41.568,25.12 C41.8080012,25.6480026 41.928,26.2559966 41.928,26.944 L41.928,35.968 C41.928,36.6720035 41.8080012,37.2839974 41.568,37.804 C41.3279988,38.3240026 41.012002,38.7559983 40.62,39.1 C40.227998,39.4440017 39.7880024,39.7039991 39.3,39.88 C38.8119976,40.0560009 38.3200025,40.144 37.824,40.144 C37.3279975,40.144 36.8360024,40.0560009 36.348,39.88 C35.8599976,39.7039991 35.420002,39.4440017 35.028,39.1 C34.635998,38.7559983 34.3200012,38.3240026 34.08,37.804 C33.8399988,37.2839974 33.72,36.6720035 33.72,35.968 L33.72,26.944 Z M44.088,22.912 L47.76,22.912 C48.4320034,22.912 49.0239974,22.9999991 49.536,23.176 C50.0480026,23.3520009 50.5119979,23.6639978 50.928,24.112 C51.3440021,24.5600022 51.6319992,25.083997 51.792,25.684 C51.9520008,26.284003 52.032,27.0959949 52.032,28.12 C52.032,28.8720038 51.9880004,29.5159973 51.9,30.052 C51.8119996,30.5880027 51.6240014,31.0879977 51.336,31.552 C50.9999983,32.1120028 50.5520028,32.5479984 49.992,32.86 C49.4319972,33.1720016 48.6960046,33.328 47.784,33.328 L46.536,33.328 L46.536,40 L44.088,40 L44.088,22.912 Z" id="Combined-Shape"></path>
            <path d="M36.168,35.968 C36.168,36.560003 36.3319984,36.9959986 36.66,37.276 C36.9880016,37.5560014 37.3759978,37.696 37.824,37.696 C38.2720022,37.696 38.6599984,37.5560014 38.988,37.276 C39.3160016,36.9959986 39.48,36.560003 39.48,35.968 L39.48,26.944 C39.48,26.351997 39.3160016,25.9160014 38.988,25.636 C38.6599984,25.3559986 38.2720022,25.216 37.824,25.216 C37.3759978,25.216 36.9880016,25.3559986 36.66,25.636 C36.3319984,25.9160014 36.168,26.351997 36.168,26.944 L36.168,35.968 Z" id="STOP"></path>
            <path d="M46.536,31.024 L47.712,31.024 C48.2080025,31.024 48.5919986,30.9520007 48.864,30.808 C49.1360014,30.6639993 49.3359994,30.4680012 49.464,30.22 C49.5920006,29.9719988 49.6679999,29.6720018 49.692,29.32 C49.7160001,28.9679982 49.728,28.5760022 49.728,28.144 C49.728,27.743998 49.7160001,27.3640018 49.692,27.004 C49.6679999,26.6439982 49.5960006,26.3320013 49.476,26.068 C49.3559994,25.8039987 49.1680013,25.5960008 48.912,25.444 C48.6559987,25.2919992 48.2880024,25.216 47.808,25.216 L46.536,25.216 L46.536,31.024 Z" id="STOP"></path>
        </g>
    </g>
</svg>