<?xml version="1.0" encoding="UTF-8"?>
<svg width="64px" height="64px" viewBox="0 0 64 64" version="1.1" xmlns="http://www.w3.org/2000/svg" xmlns:xlink="http://www.w3.org/1999/xlink">
    <!-- Generator: Sketch 40.1 (33804) - http://www.bohemiancoding.com/sketch -->
    <title>cd-icon-meeting</title>
    <desc>Created with Sketch.</desc>
    <defs>
        <path d="M6.25093341,11.4330937 L2.00918093,11.4330937 C0.896381644,11.4330937 0,12.3252865 0,13.4258621 L0,22.0167283 C0,23.1050329 0.899540941,24.0094967 2.00918093,24.0094967 L20.8570065,24.0094967 C21.9698057,24.0094967 22.8661874,23.1173039 22.8661874,22.0167283 L22.8661874,13.4258621 C22.8661874,12.3375576 21.9666464,11.4330937 20.8570065,11.4330937 L16.615254,11.4330937 C17.667514,10.2335308 18.2929499,8.6429144 18.2929499,6.85985621 C18.2929499,2.97260436 15.3203455,0 11.4330937,0 C7.54584183,0 4.57323748,2.97260436 4.57323748,6.85985621 C4.57323748,8.6429144 5.19867335,10.2335308 6.25093341,11.4330937 Z" id="path-1"></path>
        <mask id="mask-2" maskContentUnits="userSpaceOnUse" maskUnits="objectBoundingBox" x="0" y="0" width="22.8661874" height="24.0094967" fill="white">
            <use xlink:href="#path-1"></use>
        </mask>
        <path d="M6.25093341,11.4330937 L2.00918093,11.4330937 C0.896381644,11.4330937 0,12.3252865 0,13.4258621 L0,22.0167283 C0,23.1050329 0.899540941,24.0094967 2.00918093,24.0094967 L20.8570065,24.0094967 C21.9698057,24.0094967 22.8661874,23.1173039 22.8661874,22.0167283 L22.8661874,13.4258621 C22.8661874,12.3375576 21.9666464,11.4330937 20.8570065,11.4330937 L16.615254,11.4330937 C17.667514,10.2335308 18.2929499,8.6429144 18.2929499,6.85985621 C18.2929499,2.97260436 15.3203455,0 11.4330937,0 C7.54584183,0 4.57323748,2.97260436 4.57323748,6.85985621 C4.57323748,8.6429144 5.19867335,10.2335308 6.25093341,11.4330937 Z" id="path-3"></path>
        <mask id="mask-4" maskContentUnits="userSpaceOnUse" maskUnits="objectBoundingBox" x="0" y="0" width="22.8661874" height="24.0094967" fill="white">
            <use xlink:href="#path-3"></use>
        </mask>
        <path d="M6.25093341,11.4330937 L2.00918093,11.4330937 C0.896381644,11.4330937 0,12.3252865 0,13.4258621 L0,22.0167283 C0,23.1050329 0.899540941,24.0094967 2.00918093,24.0094967 L20.8570065,24.0094967 C21.9698057,24.0094967 22.8661874,23.1173039 22.8661874,22.0167283 L22.8661874,13.4258621 C22.8661874,12.3375576 21.9666464,11.4330937 20.8570065,11.4330937 L16.615254,11.4330937 C17.667514,10.2335308 18.2929499,8.6429144 18.2929499,6.85985621 C18.2929499,2.97260436 15.3203455,0 11.4330937,0 C7.54584183,0 4.57323748,2.97260436 4.57323748,6.85985621 C4.57323748,8.6429144 5.19867335,10.2335308 6.25093341,11.4330937 Z" id="path-5"></path>
        <mask id="mask-6" maskContentUnits="userSpaceOnUse" maskUnits="objectBoundingBox" x="0" y="0" width="22.8661874" height="24.0094967" fill="white">
            <use xlink:href="#path-5"></use>
        </mask>
    </defs>
    <g id="Page-1" stroke="none" stroke-width="1" fill="none" fill-rule="evenodd" stroke-opacity="0">
        <g id="cd-icon-meeting" stroke="#979797" stroke-width="2" fill="#FFFFFF">
            <g id="Person" transform="translate(0.000000, 26.000000)">
                <use id="Combined-Shape-Copy" mask="url(#mask-2)" xlink:href="#path-1"></use>
            </g>
            <g id="Person" transform="translate(20.000000, 9.000000)">
                <use id="Combined-Shape-Copy" mask="url(#mask-4)" xlink:href="#path-3"></use>
            </g>
            <g id="Person" transform="translate(41.000000, 26.000000)">
                <use id="Combined-Shape-Copy" mask="url(#mask-6)" xlink:href="#path-5"></use>
            </g>
        </g>
    </g>
</svg>